<svg height="100" preserveAspectRatio="xMidYMid" viewBox="0 0 26.458 26.458" width="100" xmlns="http://www.w3.org/2000/svg"><path d="m2.6457804.00027189h21.1667886c1.481685 0 2.645773 1.16418831 2.645773 2.64577351v21.1667886c0 1.481685-1.164188 2.645773-2.645773 2.645773h-21.1667886c-1.4816852 0-2.64577351-1.164188-2.64577351-2.645773v-21.1667886c0-1.4816852 1.16418831-2.64577351 2.64577351-2.64577351z" fill="#25344c"/><g fill="#fff"><path d="m4.7627593 9.1541804h1.693283l2.5399746 7.1966276h-1.6403836l-.4762452-1.481685h-2.6457735l-.4762453 1.481685h-1.5874841zm-.105839 4.4978546h1.8520815l-.899571-2.857471z"/><path d="m11.006697 14.128131c.05292.317496.158738.582074.264577.740822.264578.317497.687913.423326 1.269987.423326.370417 0 .634994-.053.899571-.105799.423326-.158798.634994-.423326.634994-.846662 0-.211657-.105839-.423325-.317497-.529164-.211668-.105799-.529164-.264608-1.00539-.317527l-.793742-.158738c-.740822-.158799-1.269987-.370417-1.587484-.529165-.4762451-.317497-.7408224-.846662-.7408224-1.534585 0-.634993.2116679-1.164188.6879134-1.5874839.476245-.4233258 1.164188-.6349937 2.116679-.6349937.793742 0 1.428785.2116579 1.95788.5820742.529165.3704164.846661 1.0053904.846661 1.7461824h-1.428785c-.05292-.423326-.211668-.740822-.582074-.899571-.264578-.105799-.529165-.158798-.899571-.158798-.423326 0-.740823.053-.952491.211658-.211668.158798-.370416.370416-.370416.634993 0 .264608.105839.423326.370416.582104.158759.105799.476245.158799.952491.317497l1.269987.317497c.529165.105799.95249.317497 1.269987.529165.423326.317497.634994.846661.634994 1.481685s-.264578 1.217088-.740823 1.640384c-.529164.423325-1.217088.634993-2.169578.634993-.952491 0-1.693283-.211658-2.222478-.634993-.5291645-.423326-.7937419-1.00539-.7937419-1.746183h1.4287859z"/><path d="m21.377593 9.1541804h2.169578v7.1966276h-1.428785v-6.032439l-1.375787 6.032439h-1.481685l-1.375786-6.032439v6.032439h-1.428786v-7.1966276h2.169579l1.481685 5.6620436z"/></g></svg>