<svg fill="none" height="24" viewBox="0 0 24 24" width="24" xmlns="http://www.w3.org/2000/svg"><g clip-rule="evenodd" fill="#fff" fill-rule="evenodd"><path d="m12 2c-2.716 0-3.056.01133-4.12267.06-1.06466.04867-1.792.218-2.428.46533-.66666.25067-1.27133.644-1.77133 1.15334-.50852.49942-.90209 1.10366-1.15333 1.77066-.246.636-.416 1.364-.46467 2.42867-.048 1.066-.06 1.40533-.06 4.122 0 2.7167.01133 3.056.06 4.1227.04867 1.0646.218 1.792.46533 2.428.25067.6666.644 1.2713 1.15334 1.7713.49943.5085 1.10367.9021 1.77066 1.1533.636.2467 1.36334.416 2.428.4647 1.06667.0487 1.40667.06 4.12267.06s3.056-.0113 4.1227-.06c1.0646-.0487 1.792-.218 2.428-.4653.6666-.2507 1.2713-.644 1.7713-1.1534.5085-.4994.9021-1.1036 1.1533-1.7706.2467-.636.416-1.3634.4647-2.428.0487-1.0667.06-1.4067.06-4.1227s-.0113-3.056-.06-4.12267c-.0487-1.06466-.218-1.792-.4653-2.428-.2511-.66729-.6447-1.27178-1.1534-1.77133-.4994-.50852-1.1036-.90209-1.7706-1.15333-.636-.246-1.364-.416-2.4287-.46467-1.066-.048-1.4053-.06-4.122-.06zm0 1.802c2.67 0 2.9867.01 4.0413.058.9747.04467 1.504.20667 1.8567.34467.4667.18066.8.398 1.15.74733.35.35.5667.68333.7473 1.15.1374.35267.3.882.3447 1.85667.048 1.05466.058 1.37133.058 4.04133s-.01 2.9867-.058 4.0413c-.0447.9747-.2067 1.504-.3447 1.8567-.16.4344-.4154.8273-.7473 1.15-.3226.332-.7156.5874-1.15.7473-.3527.1374-.882.3-1.8567.3447-1.0546.048-1.3706.058-4.0413.058-2.67067 0-2.98667-.01-4.04133-.058-.97467-.0447-1.504-.2067-1.85667-.3447-.43436-.16-.82733-.4154-1.15-.7473-.33188-.3227-.58725-.7157-.74733-1.15-.13734-.3527-.3-.882-.34467-1.8567-.048-1.0546-.058-1.3713-.058-4.0413s.01-2.98667.058-4.04133c.04467-.97467.20667-1.504.34467-1.85667.18066-.46667.398-.8.74733-1.15.32263-.33197.71561-.58735 1.15-.74733.35267-.13734.882-.3 1.85667-.34467 1.05466-.048 1.37133-.058 4.04133-.058z"/><path d="m12 15.3367c-.4382 0-.872-.0863-1.2769-.254-.4048-.1677-.77263-.4135-1.08246-.7233-.30984-.3099-.55562-.6777-.7233-1.0825-.16769-.4048-.25399-.8387-.25399-1.2769s.0863-.8721.25399-1.2769c.16768-.4048.41346-.77264.7233-1.08248.30983-.30984.67766-.55561 1.08246-.7233.4049-.16768.8387-.25399 1.2769-.25399.885 0 1.7336.35154 2.3594.97729.6257.62578.9773 1.47448.9773 2.35938s-.3516 1.7336-.9773 2.3594c-.6258.6257-1.4744.9773-2.3594.9773zm0-8.4767c-1.3632 0-2.67058.54153-3.63451 1.50547-.96394.96394-1.50547 2.27133-1.50547 3.63453s.54153 2.6706 1.50547 3.6345c.96393.964 2.27131 1.5055 3.63451 1.5055s2.6706-.5415 3.6345-1.5055c.964-.9639 1.5055-2.2713 1.5055-3.6345s-.5415-2.67059-1.5055-3.63453c-.9639-.96394-2.2713-1.50547-3.6345-1.50547zm6.6353-.09333c0 .32223-.128.63127-.3558.85913-.2279.22786-.5369.35587-.8591.35587-.3223 0-.6313-.12801-.8592-.35587-.2278-.22786-.3559-.5369-.3559-.85913 0-.32224.1281-.63128.3559-.85914.2279-.22785.5369-.35586.8592-.35586.3222 0 .6312.12801.8591.35586.2278.22786.3558.5369.3558.85914z"/></g></svg>