<svg fill="none" height="24" viewBox="0 0 24 24" width="24" xmlns="http://www.w3.org/2000/svg"><path d="m22 3.47059v17.05881c0 .39-.1549.7641-.4307 1.0399s-.6499.4307-1.0399.4307h-17.05881c-.39003 0-.76408-.1549-1.03986-.4307-.27579-.2758-.43073-.6499-.43073-1.0399v-17.05881c0-.39003.15494-.76408.43073-1.03986.27578-.27579.64983-.43073 1.03986-.43073h17.05881c.39 0 .7641.15494 1.0399.43073.2758.27578.4307.64983.4307 1.03986zm-14.11765 6.17647h-2.94117v9.41174h2.94117zm.26471-3.23529c.00155-.22248-.04074-.44308-.12445-.64922-.0837-.20613-.20719-.39376-.36342-.55216-.15622-.15841-.34211-.2845-.54706-.37106s-.42495-.13191-.64742-.13345h-.05294c-.45243 0-.88633.17973-1.20625.49964-.31991.31992-.49964.75382-.49964 1.20625 0 .45242.17973.88632.49964 1.20624.31992.31991.75382.49964 1.20625.49964.22249.00547.44388-.03295.65151-.11307.20764-.08011.39746-.20036.55861-.35386s.29048-.33726.38059-.54076.13924-.42276.14458-.64525zm10.91174 6.92943c0-2.8294-1.8-3.92943-3.5882-3.92943-.5855-.02932-1.1685.09538-1.6907.36168-.5223.26625-.9656.66485-1.2858 1.15595h-.0823v-1.28234h-2.76474v9.41174h2.94114v-5.0059c-.0425-.5126.119-1.0214.4494-1.4157.3305-.3943.8031-.6423 1.3153-.6901h.1118c.9353 0 1.6294.5882 1.6294 2.0705v5.0412h2.9412z" fill="#fff"/></svg>